#!OML:ASF H:\Dans Jumps\Project 1\Capture day 1\Session 1\subject.ASF
:FULLY-SPECIFIED
:DEGREES
307
root 0.768023 15.0955 5.0466 -8.24589 -2.04234 -1.33686
lowerback 3.00103 0.308482 0.856551
upperback 0.438073 0.471452 2.43217
thorax -1.24685 0.236134 1.99558
lowerneck -9.65881 -0.251083 -1.46648
upperneck 35.6147 -0.471719 1.22395
head 13.6535 -0.238111 0.683893
rclavicle -2.83268e-015 3.18055e-015
rhumerus -10.7339 -3.24096 -84.241
rradius 35.0067
rwrist 32.7607
rhand -27.2565 -30.6297
rfingers 7.12502
rthumb -0.667812 -60.6084
lclavicle -2.83268e-015 3.18055e-015
lhumerus -13.8209 -15.0913 86.8758
lradius 35.8371
lwrist 21.6311
lhand -28.8863 -11.3933
lfingers 7.12502
lthumb -2.24189 18.5746
rfemur -26.4132 -3.72535 18.2748
rtibia 69.2747
rfoot -32.0572 -3.59402
rtoes -5.14406
lfemur -25.5509 8.84004 -16.3411
ltibia 68.347
lfoot -28.9182 11.5239
ltoes -20.9753
308
root 0.774337 15.1892 5.10713 -7.98216 -2.00286 -1.31206
lowerback 2.76859 0.270104 0.854257
upperback 0.370895 0.415958 2.39699
thorax -1.18365 0.20844 1.96367
lowerneck -9.64332 -0.241106 -1.47315
upperneck 35.7427 -0.464835 1.24397
head 13.7077 -0.234181 0.694937
rclavicle 4.22417e-015 -6.36111e-015
rhumerus -10.034 -2.72334 -84.3772
rradius 35.5827
rwrist 32.1022
rhand -27.3163 -30.4973
rfingers 7.12502
rthumb -0.725624 -60.4758
lclavicle 4.22417e-015 -6.36111e-015
lhumerus -13.691 -14.9085 86.7804
lradius 36.7166
lwrist 22.8315
lhand -28.8662 -11.7313
lfingers 7.12502
lthumb -2.22251 18.2369
rfemur -25.8028 -3.75282 18.2084
rtibia 68.0848
rfoot -31.7745 -3.38023
rtoes -4.78291
lfemur -24.9639 8.90859 -16.4385
ltibia 67.1505
lfoot -28.626 11.2567
ltoes -20.6393
309
root 0.779237 15.29 5.16655 -7.64068 -1.88384 -1.30081
lowerback 2.46992 0.197929 0.825773
upperback 0.270733 0.314153 2.372
thorax -1.11611 0.15781 1.95843
lowerneck -9.58187 -0.224755 -1.4325
upperneck 35.8783 -0.43992 1.2039
head 13.7547 -0.224106 0.676028
rclavicle -9.19379e-015 -2.8625e-014
rhumerus -9.47447 -2.11601 -84.4635
rradius 36.0017
rwrist 31.8919
rhand -27.3167 -30.3157
rfingers 7.12502
rthumb -0.725948 -60.2942
lclavicle -9.19379e-015 -2.8625e-014
lhumerus -13.748 -14.7206 86.7352
lradius 37.4643
lwrist 23.5632
lhand -29.0079 -12.1201
lfingers 7.12502
lthumb -2.35937 17.8466
rfemur -25.2227 -3.82976 18.1577
rtibia 66.795
rfoot -31.4316 -3.16574
rtoes -4.37791
lfemur -24.4433 8.90003 -16.5539
ltibia 65.8623
lfoot -28.2608 10.9686
ltoes -20.2697
310
root 0.782969 15.3967 5.22536 -7.24666 -1.70694 -1.31372
lowerback 2.11806 0.101188 0.791141
upperback 0.154879 0.178953 2.35951
thorax -1.03387 0.0905456 1.9699
lowerneck -9.49471 -0.205428 -1.36764
upperneck 36.0156 -0.40492 1.12988
head 13.7966 -0.210917 0.640504
rclavicle 3.926e-015 -1.59028e-014
rhumerus -9.06793 -1.46047 -84.5049
rradius 36.3346
rwrist 32.0308
rhand -27.2602 -30.1103
rfingers 7.12502
rthumb -0.671351 -60.089
lclavicle 3.926e-015 -1.59028e-014
lhumerus -13.9457 -14.5704 86.7336
lradius 38.0602
lwrist 23.8616
lhand -29.2957 -12.561
lfingers 7.12502
lthumb -2.63729 17.4025
rfemur -24.6497 -3.93495 18.1413
rtibia 65.4131
rfoot -31.0274 -2.96808
rtoes -3.93909
lfemur -23.9635 8.84226 -16.6673
ltibia 64.4979
lfoot -27.8234 10.6704
ltoes -19.8718
311
root 0.786135 15.5079 5.28431 -6.82009 -1.49395 -1.35139
lowerback 1.72045 -0.00932085 0.764943
upperback 0.0373089 0.024922 2.35694
thorax -0.92704 0.0137966 1.98619
lowerneck -9.39809 -0.186092 -1.29754
upperneck 36.1516 -0.368758 1.04913
head 13.8361 -0.197392 0.601374
rclavicle -1.14301e-015 2.06736e-014
rhumerus -8.82979 -0.790413 -84.5088
rradius 36.6595
rwrist 32.3467
rhand -27.1752 -29.9116
rfingers 7.12502
rthumb -0.589332 -59.8905
lclavicle -1.14301e-015 2.06736e-014
lhumerus -14.2357 -14.4824 86.7684
lradius 38.4848
lwrist 23.8104
lhand -29.6776 -13.0315
lfingers 7.12502
lthumb -3.00612 16.927
rfemur -24.0671 -4.05462 18.162
rtibia 63.9494
rfoot -30.5669 -2.79021
rtoes -3.46527
lfemur -23.4996 8.76833 -16.7729
ltibia 63.0711
lfoot -27.3215 10.3823
ltoes -19.4236
312
root 0.788894 15.6221 5.34327 -6.37025 -1.27362 -1.42081
lowerback 1.28861 -0.118099 0.764529
upperback -0.076121 -0.126994 2.36261
thorax -0.79669 -0.0620631 1.9949
lowerneck -9.30473 -0.174602 -1.23128
upperneck 36.2804 -0.346786 0.979023
head 13.8735 -0.189095 0.565049
rclavicle -4.67144e-015 -1.51076e-014
rhumerus -8.76559 -0.153978 -84.4862
rradius 37.0285
rwrist 32.6619
rhand -27.0949 -29.7269
rfingers 7.12502
rthumb -0.51179 -59.706
lclavicle -4.67144e-015 -1.51076e-014
lhumerus -14.5816 -14.4781 86.8341
lradius 38.7476
lwrist 23.5317
lhand -30.0931 -13.4843
lfingers 7.12502
lthumb -3.40734 16.4682
rfemur -23.4777 -4.16721 18.233
rtibia 62.4157
rfoot -30.0473 -2.63258
rtoes -2.94214
lfemur -23.0446 8.71638 -16.8547
ltibia 61.5977
lfoot -26.7695 10.0924
ltoes -18.8828
313
root 0.791479 15.7383 5.40238 -5.90304 -1.06598 -1.50977
lowerback 0.827994 -0.212976 0.788232
upperback -0.184491 -0.260899 2.36728
thorax -0.645595 -0.129072 1.98707
lowerneck -9.1782 -0.176206 -1.14257
upperneck 36.3628 -0.349299 0.907907
head 13.8826 -0.188398 0.520463
rclavicle -5.91384e-015 1.19271e-014
rhumerus -8.88724 0.403509 -84.4512
rradius 37.4824
rwrist 32.8383
rhand -27.0541 -29.538
rfingers 7.12502
rthumb -0.472292 -59.5172
lclavicle -5.91384e-015 1.19271e-014
lhumerus -14.9611 -14.564 86.9247
lradius 38.8601
lwrist 23.158
lhand -30.4685 -13.8988
lfingers 7.12502
lthumb -3.76989 16.0476
rfemur -22.8881 -4.26194 18.3424
rtibia 60.8297
rfoot -29.4752 -2.49075
rtoes -2.34118
lfemur -22.5938 8.71124 -16.9223
ltibia 60.0902
lfoot -26.1842 9.79468
ltoes -18.2063
314
root 0.793903 15.855 5.46114 -5.42324 -0.887226 -1.60997
lowerback 0.345019 -0.28183 0.833313
upperback -0.278003 -0.361117 2.36591
thorax -0.467951 -0.179378 1.95913
lowerneck -9.06935 -0.197195 -1.07729
upperneck 36.4221 -0.389026 0.878402
head 13.8858 -0.201441 0.491468
rclavicle -5.81445e-015 -6.75868e-015
rhumerus -9.15711 0.851124 -84.4062
rradius 38.0162
rwrist 32.8339
rhand -27.059 -29.385
rfingers 7.12502
rthumb -0.477066 -59.3642
lclavicle -5.81445e-015 -6.75868e-015
lhumerus -15.344 -14.7428 87.0347
lradius 38.8574
lwrist 22.7943
lhand -30.7623 -14.2174
lfingers 7.12502
lthumb -4.05359 15.7238
rfemur -22.3071 -4.33001 18.4819
rtibia 59.2094
rfoot -28.8547 -2.36455
rtoes -1.66452
lfemur -22.1468 8.77195 -16.9797
ltibia 58.5624
lfoot -25.5718 9.49531
ltoes -17.423
315
root 0.796025 15.9709 5.51858 -4.93089 -0.738672 -1.69726
lowerback -0.148869 -0.323085 0.874524
upperback -0.357004 -0.425618 2.35157
thorax -0.270546 -0.211829 1.91878
lowerneck -8.97252 -0.236361 -1.03117
upperneck 36.444 -0.463047 0.884494
head 13.8751 -0.227186 0.475275
rclavicle -3.42904e-015 -1.47101e-014
rhumerus -9.5408 1.15387 -84.3576
rradius 38.5999
rwrist 32.6767
rhand -27.1092 -29.2278
rfingers 7.12502
rthumb -0.525535 -59.2069
lclavicle -3.42904e-015 -1.47101e-014
lhumerus -15.7214 -15.003 87.1593
lradius 38.7697
lwrist 22.5213
lhand -30.9335 -14.4109
lfingers 7.12502
lthumb -4.21889 15.5271
rfemur -21.7501 -4.37688 18.6228
rtibia 57.576
rfoot -28.1917 -2.25374
rtoes -0.90753
lfemur -21.7146 8.89623 -17.0535
ltibia 57.0258
lfoot -24.9302 9.20474
ltoes -16.5864
316
root 0.797495 16.0851 5.57431 -4.43781 -0.626468 -1.78917
lowerback -0.635167 -0.336768 0.924291
upperback -0.416218 -0.454069 2.3314
thorax -0.0583512 -0.226251 1.86713
lowerneck -8.90481 -0.289899 -1.0131
upperneck 36.4337 -0.56515 0.931249
head 13.8567 -0.263503 0.47645
rclavicle -1.68967e-015 3.18055e-015
rhumerus -9.99584 1.30177 -84.307
rradius 39.1938
rwrist 32.4191
rhand -27.1877 -29.054
rfingers 7.12502
rthumb -0.601409 -59.0329
lclavicle -1.68967e-015 3.18055e-015
lhumerus -16.0876 -15.3246 87.2926
lradius 38.6271
lwrist 22.3682
lhand -30.9535 -14.4732
lfingers 7.12502
lthumb -4.23819 15.4644
rfemur -21.2096 -4.39331 18.7858
rtibia 55.9428
rfoot -27.4938 -2.16708
rtoes -0.0689068
lfemur -21.2933 9.07947 -17.1148
ltibia 55.4946
lfoot -24.2684 8.91243
ltoes -15.7528
317
root 0.79834 16.1966 5.62789 -3.95056 -0.536092 -1.87057
lowerback -1.09973 -0.331124 0.965165
upperback -0.455814 -0.457032 2.30226
thorax 0.161003 -0.227856 1.81145
lowerneck -8.86583 -0.354016 -1.03464
upperneck 36.3895 -0.688285 1.02256
head 13.8299 -0.308464 0.499561
rclavicle 6.11263e-015 -2.14687e-014
rhumerus -10.4943 1.32331 -84.255
rradius 39.7729
rwrist 32.0971
rhand -27.2743 -28.9254
rfingers 7.12502
rthumb -0.685027 -58.904
lclavicle 6.11263e-015 -2.14687e-014
lhumerus -16.4501 -15.6849 87.4295
lradius 38.4496
lwrist 22.3165
lhand -30.8326 -14.3897
lfingers 7.12502
lthumb -4.1215 15.5502
rfemur -20.6831 -4.39558 18.9466
rtibia 54.3235
rfoot -26.7727 -2.09645
rtoes 0.831248
lfemur -20.8832 9.29402 -17.1795
ltibia 53.9796
lfoot -23.5841 8.6256
ltoes -15.0121
318
root 0.798404 16.3049 5.67888 -3.47398 -0.462752 -1.94657
lowerback -1.52989 -0.312119 0.997366
upperback -0.475455 -0.441973 2.26868
thorax 0.381071 -0.220376 1.75668
lowerneck -8.86399 -0.42048 -1.08819
upperneck 36.314 -0.818104 1.14803
head 13.7978 -0.356119 0.540999
rclavicle 9.49197e-015 -4.37326e-015
rhumerus -11.0061 1.22559 -84.201
rradius 40.2987
rwrist 31.751
rhand -27.3495 -28.7814
rfingers 7.12502
rthumb -0.757637 -58.7598
lclavicle 9.49197e-015 -4.37326e-015
lhumerus -16.8162 -16.0555 87.566
lradius 38.2567
lwrist 22.3205
lhand -30.5883 -14.1723
lfingers 7.12502
lthumb -3.88557 15.772
rfemur -20.1686 -4.3844 19.1074
rtibia 52.7264
rfoot -26.0356 -2.03699
rtoes 1.77514
lfemur -20.4859 9.51847 -17.2362
ltibia 52.4922
lfoot -22.8874 8.32436
ltoes -14.3827
